{
	"asset":{
		"generator":"Khronos glTF Blender I/O v3.6.28",
		"version":"2.0"
	},
	"scene":0,
	"scenes":[
		{
			"name":"Scene",
			"nodes":[
				0,
				1
			]
		}
	],
	"nodes":[
		{
			"mesh":0,
			"name":"servomuto obj.001",
			"translation":[
				0.5234527587890625,
				0,
				28.109325408935547
			]
		},
		{
			"mesh":1,
			"name":"bake",
			"translation":[
				0.5234527587890625,
				0,
				28.109325408935547
			]
		}
	],
	"materials":[
		{
			"doubleSided":true,
			"name":"bake",
			"pbrMetallicRoughness":{
				"metallicFactor":0,
				"roughnessFactor":0.5
			}
		}
	],
	"meshes":[
		{
			"name":"servomuto obj.001",
			"primitives":[
				{
					"attributes":{
						"POSITION":0,
						"NORMAL":1,
						"TEXCOORD_0":2,
						"TEXCOORD_1":3
					},
					"indices":4,
					"material":0
				},
				{
					"attributes":{
						"POSITION":5,
						"NORMAL":6,
						"TEXCOORD_0":7,
						"TEXCOORD_1":8
					},
					"indices":9,
					"material":0
				}
			]
		},
		{
			"name":"servomuto obj.006",
			"primitives":[
				{
					"attributes":{
						"POSITION":10,
						"NORMAL":11,
						"TEXCOORD_0":12,
						"TEXCOORD_1":13
					},
					"indices":14,
					"material":0
				},
				{
					"attributes":{
						"POSITION":15,
						"NORMAL":16,
						"TEXCOORD_0":17,
						"TEXCOORD_1":18
					},
					"indices":19,
					"material":0
				}
			]
		}
	],
	"accessors":[
		{
			"bufferView":0,
			"componentType":5126,
			"count":2093,
			"max":[
				17.5,
				125.1064224243164,
				0
			],
			"min":[
				-17.5,
				0,
				-53.5100212097168
			],
			"type":"VEC3"
		},
		{
			"bufferView":1,
			"componentType":5126,
			"count":2093,
			"type":"VEC3"
		},
		{
			"bufferView":2,
			"componentType":5126,
			"count":2093,
			"type":"VEC2"
		},
		{
			"bufferView":3,
			"componentType":5126,
			"count":2093,
			"type":"VEC2"
		},
		{
			"bufferView":4,
			"componentType":5123,
			"count":5766,
			"type":"SCALAR"
		},
		{
			"bufferView":5,
			"componentType":5126,
			"count":492,
			"max":[
				17.5,
				16.240875244140625,
				0
			],
			"min":[
				-17.5,
				14.240876197814941,
				-61.625640869140625
			],
			"type":"VEC3"
		},
		{
			"bufferView":6,
			"componentType":5126,
			"count":492,
			"type":"VEC3"
		},
		{
			"bufferView":7,
			"componentType":5126,
			"count":492,
			"type":"VEC2"
		},
		{
			"bufferView":8,
			"componentType":5126,
			"count":492,
			"type":"VEC2"
		},
		{
			"bufferView":9,
			"componentType":5123,
			"count":1524,
			"type":"SCALAR"
		},
		{
			"bufferView":10,
			"componentType":5126,
			"count":2093,
			"max":[
				17.5,
				125.1064224243164,
				0
			],
			"min":[
				-17.5,
				0,
				-53.5100212097168
			],
			"type":"VEC3"
		},
		{
			"bufferView":11,
			"componentType":5126,
			"count":2093,
			"type":"VEC3"
		},
		{
			"bufferView":12,
			"componentType":5126,
			"count":2093,
			"type":"VEC2"
		},
		{
			"bufferView":13,
			"componentType":5126,
			"count":2093,
			"type":"VEC2"
		},
		{
			"bufferView":14,
			"componentType":5123,
			"count":5766,
			"type":"SCALAR"
		},
		{
			"bufferView":15,
			"componentType":5126,
			"count":492,
			"max":[
				17.5,
				16.240875244140625,
				0
			],
			"min":[
				-17.5,
				14.240876197814941,
				-61.625640869140625
			],
			"type":"VEC3"
		},
		{
			"bufferView":16,
			"componentType":5126,
			"count":492,
			"type":"VEC3"
		},
		{
			"bufferView":17,
			"componentType":5126,
			"count":492,
			"type":"VEC2"
		},
		{
			"bufferView":18,
			"componentType":5126,
			"count":492,
			"type":"VEC2"
		},
		{
			"bufferView":19,
			"componentType":5123,
			"count":1524,
			"type":"SCALAR"
		}
	],
	"bufferViews":[
		{
			"buffer":0,
			"byteLength":25116,
			"byteOffset":0,
			"target":34962
		},
		{
			"buffer":0,
			"byteLength":25116,
			"byteOffset":25116,
			"target":34962
		},
		{
			"buffer":0,
			"byteLength":16744,
			"byteOffset":50232,
			"target":34962
		},
		{
			"buffer":0,
			"byteLength":16744,
			"byteOffset":66976,
			"target":34962
		},
		{
			"buffer":0,
			"byteLength":11532,
			"byteOffset":83720,
			"target":34963
		},
		{
			"buffer":0,
			"byteLength":5904,
			"byteOffset":95252,
			"target":34962
		},
		{
			"buffer":0,
			"byteLength":5904,
			"byteOffset":101156,
			"target":34962
		},
		{
			"buffer":0,
			"byteLength":3936,
			"byteOffset":107060,
			"target":34962
		},
		{
			"buffer":0,
			"byteLength":3936,
			"byteOffset":110996,
			"target":34962
		},
		{
			"buffer":0,
			"byteLength":3048,
			"byteOffset":114932,
			"target":34963
		},
		{
			"buffer":0,
			"byteLength":25116,
			"byteOffset":117980,
			"target":34962
		},
		{
			"buffer":0,
			"byteLength":25116,
			"byteOffset":143096,
			"target":34962
		},
		{
			"buffer":0,
			"byteLength":16744,
			"byteOffset":168212,
			"target":34962
		},
		{
			"buffer":0,
			"byteLength":16744,
			"byteOffset":184956,
			"target":34962
		},
		{
			"buffer":0,
			"byteLength":11532,
			"byteOffset":201700,
			"target":34963
		},
		{
			"buffer":0,
			"byteLength":5904,
			"byteOffset":213232,
			"target":34962
		},
		{
			"buffer":0,
			"byteLength":5904,
			"byteOffset":219136,
			"target":34962
		},
		{
			"buffer":0,
			"byteLength":3936,
			"byteOffset":225040,
			"target":34962
		},
		{
			"buffer":0,
			"byteLength":3936,
			"byteOffset":228976,
			"target":34962
		},
		{
			"buffer":0,
			"byteLength":3048,
			"byteOffset":232912,
			"target":34963
		}
	],
	"buffers":[
		{
			"byteLength":235960,
			"uri":"plosedzialaj.bin"
		}
	]
}
